<svg width="44" height="45" viewBox="0 0 44 45" fill="none" xmlns="http://www.w3.org/2000/svg">
<g clip-path="url(#clip0_7_1846)">
<path d="M0 0.5H44V44.5H0V0.5Z" fill="#012169"/>
<path d="M5.15625 0.5L21.9312 17.0917L38.6375 0.5H44V6.18333L27.5 22.5917L44 38.9083V44.5H38.5L22 28.0917L5.56875 44.5H0V39L16.4312 22.6833L0 6.36667V0.5H5.15625Z" fill="white"/>
<path d="M29.15 26.2583L44 40.8333V44.5L25.3687 26.2583H29.15ZM16.5 28.0917L16.9125 31.3L3.7125 44.5H0L16.5 28.0917ZM44 0.5V0.775L26.8813 18.0083L27.0188 13.975L40.5625 0.5H44ZM0 0.5L16.4312 16.6333H12.3063L0 4.35V0.5Z" fill="#C8102E"/>
<path d="M16.5688 0.5V44.5H27.5688V0.5H16.5688ZM0 15.1667V29.8333H44V15.1667H0Z" fill="white"/>
<path d="M0 18.1917V26.9917H44V18.1917H0ZM18.7688 0.5V44.5H25.3687V0.5H18.7688Z" fill="#C8102E"/>
</g>
<defs>
<clipPath id="clip0_7_1846">
<rect y="0.5" width="44" height="44" rx="14" fill="white"/>
</clipPath>
</defs>
</svg>
