<svg width="20" height="13" viewBox="0 0 20 13" fill="none" xmlns="http://www.w3.org/2000/svg">
<path d="M9.34916 9.267L8.58385 11.7985C8.11177 10.2432 7.6629 8.76561 7.19907 7.23734L8.82143 6.89718C8.82143 6.86572 8.82503 6.83426 8.8271 6.80329C8.62095 6.75807 8.41945 6.7099 8.21536 6.66812C7.82987 6.58947 7.44232 6.52065 7.05941 6.43315C7.02443 6.4188 6.99309 6.39746 6.96748 6.37058C6.94188 6.3437 6.92262 6.3119 6.91098 6.27732C6.81838 6.02372 6.73993 5.76562 6.67598 5.5041C6.65405 5.38994 6.66637 5.27219 6.71154 5.16443C6.96888 4.67877 7.23463 4.20359 7.5088 3.7389C7.53035 3.70565 7.56082 3.67851 7.59707 3.66027C7.63331 3.64203 7.67401 3.63337 7.71495 3.63518C7.84624 3.64723 7.97339 3.68559 8.08807 3.74775C8.54262 3.99992 8.97397 3.76544 9.40945 3.63223C9.53005 3.59487 9.6089 3.62387 9.68362 3.76987C9.8104 4.0186 9.95007 4.25356 10.117 4.55342L8.70444 4.84295L8.70135 4.94618L10.5371 5.32664C10.434 5.68106 10.3443 5.9991 10.25 6.31419C10.0351 7.02695 9.81504 7.73579 9.60426 8.45101C9.54241 8.6614 9.45996 8.76463 9.29504 8.78527C8.99716 8.82214 8.70186 8.90521 8.40501 8.96912L8.40192 9.06005L9.34916 9.267Z" fill="#D77C29"/>
<path d="M8.51736 3.2262C8.33596 2.83639 8.17929 2.50803 8.0319 2.17623C8.00882 2.11641 8.00647 2.05111 8.0252 1.98992C8.17517 1.51999 8.33183 1.05252 8.51427 0.5C8.70083 1.06185 8.86369 1.54309 9.01675 2.02679C9.02577 2.09033 9.0137 2.15497 8.98222 2.21162C8.84101 2.52867 8.69362 2.84327 8.5184 3.2262" fill="#208044"/>
<path d="M8.28339 3.38203C7.88502 3.14853 7.52787 2.95879 7.19804 2.73415C7.09497 2.66435 7.05374 2.50213 7.00375 2.37531C6.92645 2.17868 6.86615 1.97616 6.80379 1.79035C7.73917 1.91422 8.01283 2.59995 8.28339 3.38203Z" fill="#208044"/>
<path d="M10.1835 1.6999C10.1985 2.67123 9.49346 2.99467 8.72866 3.36826C8.90491 2.98337 8.99201 2.60241 9.22444 2.33844C9.45687 2.07447 9.83875 1.92012 10.1835 1.69941" fill="#208044"/>
<path d="M8.57199 11.9952L6.77029 12.2193L8.57199 12.5L10.3149 12.2473L8.57199 11.9952Z" fill="#B3B3B4"/>
<path d="M0 11.7514V3.58504H1.74295V10.3642H6.07713V11.7514H0Z" fill="#D77C29"/>
<path d="M11.7621 11.7976L14.7125 7.50082L12.0388 3.56489H14.0766L15.8077 6.20998L17.5037 3.56489H19.5234L16.8379 7.56374L19.7898 11.7976H17.6861L15.77 8.94994L13.8529 11.7976H11.7621Z" fill="#D77C29"/>
</svg>
